<?xml version="1.0" encoding="UTF-8" standalone="no"?>
<!-- (c) ammap.com | SVG map of South America - low -->

<svg
   viewBox="240 425 130.89 222.47"
   version="1.1"
   id="svg16"
   sodipodi:docname="south_america.svg"
   width="130.89"
   height="222.47"
   inkscape:version="1.2.2 (b0a8486541, 2022-12-01)"
   xmlns:inkscape="http://www.inkscape.org/namespaces/inkscape"
   xmlns:sodipodi="http://sodipodi.sourceforge.net/DTD/sodipodi-0.dtd"
   xmlns="http://www.w3.org/2000/svg"
   xmlns:svg="http://www.w3.org/2000/svg">
  <defs
     id="defs20" />
  <sodipodi:namedview
     id="namedview18"
     style="stroke-linejoin:round"
     pagecolor="#ffffff"
     bordercolor="#666666"
     borderopacity="1"
     inkscape:showpageshadow="2"
     inkscape:pageopacity="0.0"
     inkscape:pagecheckerboard="0"
     inkscape:deskcolor="#d1d1d1"
     showgrid="false"
     inkscape:zoom="3.2730769"
     inkscape:cx="49.647474"
     inkscape:cy="126.79201"
     inkscape:window-width="1920"
     inkscape:window-height="1022"
     inkscape:window-x="0"
     inkscape:window-y="0"
     inkscape:window-maximized="1"
     inkscape:current-layer="svg16" />
  <g
     id="g14"
     transform="translate(-6.99,-3.47)"
     style="stroke: #808080; stroke-width: 0.5; stroke-linejoin: round; fill: #000000;">
    <path
       id="AR"
       data-name="Argentina"
       data-id="AR"
       d="m 291.6,648.91 -2.66,0.25 -1.43,-1.73 -1.69,-0.13 h -3 v -10.57 l 1.08,2.15 1.4,3.53 3.65,2.87 3.93,1.21 z m 1.5,-122.44 1.65,2.18 1.09,-2.43 3.2,0.12 0.45,0.64 5.15,4.94 2.29,0.46 3.43,2.26 2.89,1.2 0.4,1.36 -2.76,4.73 2.83,0.85 3.15,0.48 2.22,-0.5 2.54,-2.4 0.46,-2.74 1.39,-0.59 1.41,1.79 -0.06,2.49 -2.36,1.73 -1.88,1.28 -3.16,3.08 -3.74,4.37 -0.7,2.59 -0.75,3.37 0.03,3.3 -0.61,0.74 -0.22,2.17 -0.19,1.76 3.56,2.91 -0.38,2.37 1.75,1.51 -0.14,1.7 -2.69,4.52 -4.16,1.91 -5.62,0.75 -3.08,-0.36 0.59,2.15 -0.57,2.72 0.52,1.85 -1.68,1.3 -2.87,0.51 -2.7,-1.35 -1.08,0.97 0.39,3.71 1.89,1.14 1.54,-1.19 0.84,1.96 -2.58,1.18 -2.25,2.38 -0.41,3.91 -0.66,2.11 -2.65,0.01 -2.2,2.04 -0.8,3.01 2.76,2.98 2.68,0.83 -0.96,3.73 -3.31,2.38 -1.82,5.03 -2.56,1.72 -1.15,2.06 0.91,4.64 1.87,2.63 -1.18,-0.23 -2.6,-0.71 -6.78,-0.61 -1.16,-2.63 0.05,-3.33 -1.87,0.28 -0.99,-1.6 -0.25,-4.6 2.15,-1.88 0.89,-2.68 -0.33,-2.11 1.49,-3.52 1.02,-5.35 -0.3,-2.33 1.22,-0.75 -0.3,-1.48 -1.3,-0.78 0.92,-1.63 -1.27,-1.46 -0.65,-4.4 1.13,-0.77 -0.47,-4.54 0.66,-3.75 0.75,-3.22 1.68,-1.3 -0.85,-3.46 -0.01,-3.22 2.12,-2.26 -0.06,-2.87 1.6,-3.31 0.01,-3.09 -0.73,-0.61 -1.29,-5.69 1.73,-3.34 -0.27,-3.11 1,-2.9 1.84,-2.96 1.98,-1.95 -0.84,-1.23 0.59,-1 -0.09,-5.14 3.05,-1.51 0.96,-3.16 -0.34,-0.76 2.34,-2.72 z" />
    <path
       id="BO"
       data-name="Bolivia"
       data-id="BO"
       d="m 299.04,526.35 -3.2,-0.13 -1.09,2.43 -1.65,-2.18 -3.67,-0.73 -2.33,2.72 -2.03,0.41 -1.1,-4.15 -1.5,-3.34 0.88,-2.87 -1.47,-1.25 -0.37,-2.12 -1.38,-2 1.77,-3.14 -1.21,-2.44 0.65,-0.97 -0.51,-1.07 1.1,-1.44 0.06,-2.44 0.13,-2.02 0.61,-0.96 -2.43,-4.58 2.09,0.24 1.44,-0.07 0.63,-0.85 2.45,-1.15 1.47,-1.06 3.67,-0.48 -0.29,2.12 0.34,1.09 -0.23,1.9 3.05,2.55 3.14,0.47 1.1,1.07 1.9,0.57 1.16,0.83 1.76,-0.03 1.63,0.85 0.12,1.66 0.55,0.84 0.04,1.25 -0.82,0.04 1.08,3.37 5.37,0.12 -0.41,1.68 0.3,1.15 1.53,0.82 0.67,1.82 -0.5,2.32 -0.77,1.29 0.27,1.69 -0.88,0.61 -0.04,-0.91 -2.62,-1.51 -2.6,-0.05 -4.89,0.86 -1.34,2.62 -0.07,1.6 -1.11,3.59 z" />
    <path
       id="BR"
       data-name="Brazil"
       data-id="BR"
       d="m 313.68,551.79 3.74,-4.37 3.17,-3.08 1.88,-1.28 2.36,-1.73 0.06,-2.49 -1.41,-1.79 -1.39,0.59 0.55,-1.78 0.38,-1.82 v -1.68 l -1.01,-0.55 -1.05,0.49 -1.04,-0.13 -0.33,-1.18 -0.26,-2.77 -0.53,-0.9 -1.89,-0.82 -1.14,0.59 -2.96,-0.58 0.18,-4.06 -0.83,-1.66 0.88,-0.61 -0.27,-1.69 0.77,-1.29 0.5,-2.32 -0.67,-1.82 -1.53,-0.82 -0.3,-1.15 0.41,-1.68 -5.37,-0.12 -1.08,-3.37 0.82,-0.04 -0.04,-1.25 -0.55,-0.84 -0.12,-1.66 -1.63,-0.85 -1.76,0.03 -1.16,-0.83 -1.9,-0.57 -1.1,-1.07 -3.14,-0.47 -3.05,-2.55 0.23,-1.9 -0.34,-1.09 0.29,-2.12 -3.67,0.48 -1.47,1.06 -2.45,1.15 -0.63,0.85 -1.44,0.07 -2.09,-0.24 -1.58,0.49 -1.28,-0.33 0.19,-4.3 -2.3,1.66 -2.47,-0.07 -1.06,-1.51 -1.86,-0.16 0.59,-1.21 -1.56,-1.72 -1.17,-2.53 0.74,-0.51 v -1.19 l 1.7,-0.81 -0.28,-1.51 0.71,-0.98 0.21,-1.3 3.2,-1.91 2.3,-0.53 0.37,-0.42 2.53,0.13 1.26,-7.65 0.07,-1.21 -0.44,-1.59 -1.24,-1.02 0.01,-2.02 1.58,-0.46 0.56,0.29 0.09,-1.07 -1.64,-0.29 -0.03,-1.74 5.46,0.06 0.93,-0.96 0.78,0.88 0.54,1.65 0.53,-0.35 1.55,1.48 2.18,-0.18 0.54,-0.86 2.08,-0.65 1.16,-0.45 0.32,-1.18 2.01,-0.8 -0.16,-0.58 -2.37,-0.24 -0.39,-1.76 0.11,-1.87 -1.25,-0.72 0.52,-0.26 2.08,0.36 2.23,0.7 0.81,-0.66 2.01,-0.44 3.14,-1.04 1.03,-1.07 -0.38,-0.79 1.46,-0.12 0.66,0.64 -0.37,1.23 0.96,0.42 0.65,1.3 -0.78,0.98 -0.45,2.38 0.72,1.41 0.2,1.29 1.73,1.3 1.38,0.14 0.31,-0.54 0.88,-0.12 1.27,-0.49 0.91,-0.74 1.55,0.23 0.68,-0.1 1.53,0.23 0.25,-0.57 -0.47,-0.55 0.28,-0.81 1.13,0.25 1.33,-0.29 1.6,0.59 1.23,0.58 0.87,-0.76 0.62,0.12 0.39,0.79 1.34,-0.2 1.07,-1.06 0.86,-2.06 1.66,-2.55 0.96,-0.13 0.69,1.54 1.57,4.88 1.5,0.46 0.08,1.92 -2.11,2.29 0.87,0.84 4.96,0.44 0.1,2.79 2.13,-1.83 3.53,1.01 4.65,1.7 1.37,1.63 -0.46,1.54 3.26,-0.86 5.46,1.48 4.19,-0.11 4.14,2.31 3.58,3.13 2.16,0.8 2.4,0.12 1.02,0.88 0.95,3.57 0.47,1.69 -1.12,4.66 -1.43,1.84 -3.95,3.94 -1.79,3.21 -2.07,2.48 -0.7,0.06 -0.79,2.1 0.2,5.4 -0.78,4.48 -0.3,1.93 -0.88,1.15 -0.5,3.94 -2.84,3.88 -0.48,3.09 -2.27,1.31 -0.66,1.81 -3.04,-0.01 -4.41,1.17 -1.98,1.35 -3.14,0.89 -3.3,2.44 -2.37,3.06 -0.41,2.32 0.47,1.73 -0.53,3.18 -0.63,1.55 -1.96,1.75 -3.11,5.68 -2.47,2.59 -1.91,1.54 -1.27,3.16 -1.86,1.91 -0.78,-1.9 1.24,-1.57 -1.62,-2.25 -2.2,-1.82 -2.89,-2.08 -1.04,0.09 -2.81,-2.5 z" />
    <path
       id="CL"
       data-name="Chile"
       data-id="CL"
       d="m 282.81,636.73 v 10.57 h 3 l 1.69,0.13 -0.93,1.98 -2.4,1.53 -1.38,-0.16 -1.66,-0.4 -2.04,-1.48 -2.94,-0.71 -3.53,-2.71 -2.86,-2.57 -3.86,-5.25 2.31,0.97 3.94,3.13 3.72,1.7 1.45,-2.17 0.91,-3.2 2.58,-1.91 z m 1.16,-112.01 1.1,4.15 2.02,-0.41 0.34,0.76 -0.96,3.16 -3.05,1.51 0.09,5.14 -0.59,1 0.84,1.23 -1.98,1.95 -1.84,2.96 -1,2.9 0.27,3.11 -1.73,3.34 1.29,5.69 0.73,0.61 -0.01,3.09 -1.6,3.31 0.06,2.87 -2.12,2.26 0.01,3.22 0.85,3.46 -1.68,1.3 -0.75,3.22 -0.66,3.75 0.47,4.54 -1.13,0.77 0.65,4.4 1.27,1.46 -0.92,1.63 1.3,0.78 0.3,1.48 -1.22,0.75 0.3,2.33 -1.02,5.35 -1.49,3.52 0.33,2.11 -0.89,2.68 -2.15,1.88 0.25,4.6 0.99,1.6 1.87,-0.28 -0.05,3.33 1.16,2.63 6.78,0.61 2.6,0.71 -2.49,-0.03 -1.35,1.13 -2.53,1.67 -0.45,4.38 -1.19,0.11 -3.16,-1.54 -3.21,-3.25 v 0 l -3.49,-2.63 -0.88,-2.87 0.79,-2.62 -1.41,-2.94 -0.36,-7.34 1.19,-4.03 2.96,-3.19 -4.26,-1.19 2.67,-3.57 0.95,-6.56 3.12,1.37 1.46,-7.97 -1.88,-1 -0.88,4.75 -1.77,-0.54 0.88,-5.42 0.96,-6.84 1.29,-2.48 -0.81,-3.5 -0.23,-3.98 1.18,-0.11 1.72,-5.6 1.94,-5.43 1.19,-4.97 -0.65,-4.91 0.84,-2.67 -0.34,-3.96 1.64,-3.87 0.51,-6.04 0.9,-6.37 0.88,-6.75 -0.21,-4.87 -0.58,-4.15 1.44,-0.75 0.75,-1.5 1.37,1.99 0.37,2.12 1.47,1.25 -0.88,2.87 z" />
    <path
       id="CO"
       data-name="Colombia"
       data-id="CO"
       d="m 263.92,463.81 -1.2,-0.66 -1.38,-0.92 -0.8,0.44 -2.38,-0.39 -0.68,-1.2 -0.52,0.05 -2.81,-1.59 -0.38,-0.87 1.05,-0.21 -0.12,-1.39 0.65,-1.01 1.39,-0.19 1.19,-1.75 1.07,-1.46 -1.04,-0.67 0.53,-1.62 -0.63,-2.56 0.6,-0.73 -0.44,-2.37 -1.14,-1.5 0.36,-1.36 0.91,0.2 0.53,-0.84 -0.65,-1.65 0.34,-0.42 1.44,0.09 2.11,-1.97 1.15,-0.3 0.03,-0.93 0.52,-2.39 1.61,-1.32 1.76,-0.05 0.22,-0.59 2.2,0.23 2.21,-1.43 1.09,-0.64 1.35,-1.37 1,0.17 0.73,0.75 -0.54,0.96 -1.8,0.48 -0.71,1.42 -1.09,0.81 -0.81,1.06 -0.35,2.01 -0.77,1.66 1.44,0.18 0.36,1.3 0.62,0.62 0.22,1.13 -0.33,1.04 0.1,0.59 0.69,0.23 0.67,0.98 3.6,-0.27 1.63,0.36 1.98,2.41 1.13,-0.3 2.02,0.15 1.6,-0.32 0.99,0.49 -0.51,1.5 -0.62,0.94 -0.22,2.01 0.56,1.85 0.8,0.83 0.09,0.63 -1.42,1.39 1.02,0.61 0.75,0.98 0.85,2.77 -0.53,0.35 -0.54,-1.65 -0.78,-0.88 -0.93,0.96 -5.46,-0.06 0.03,1.74 1.64,0.29 -0.09,1.07 -0.56,-0.29 -1.58,0.46 -0.01,2.02 1.24,1.02 0.44,1.59 -0.07,1.21 -1.26,7.65 -1.4,-1.49 -0.84,-0.06 1.81,-2.84 -2.15,-1.31 -1.68,0.24 -1.01,-0.48 -1.55,0.74 -2.09,-0.35 -1.65,-2.92 -1.3,-0.72 -0.89,-1.32 -1.86,-1.32 z" />
    <path
       id="EC"
       data-name="Ecuador"
       data-id="EC"
       d="m 250.1,472.87 1.49,-2.08 -0.61,-1.22 -1.07,1.3 -1.68,-1.23 0.57,-0.78 -0.47,-2.53 0.98,-0.42 0.52,-1.73 1.06,-1.8 -0.2,-1.13 1.54,-0.6 1.92,-1.11 2.81,1.59 0.52,-0.05 0.68,1.2 2.38,0.39 0.8,-0.44 1.38,0.92 1.2,0.66 0.39,2.11 -0.87,1.81 -3.06,2.92 -3.37,1.1 -1.72,2.43 -0.53,1.88 -1.59,1.15 -1.17,-1.41 -1.14,-0.3 -1.16,0.22 -0.07,-1.02 0.8,-0.66 z" />
    <path
       id="GY"
       data-name="Guyana"
       data-id="GY"
       d="m 307.7,440 1.84,1.03 1.74,1.83 0.07,1.45 1.06,0.07 1.5,1.36 1.11,0.98 -0.45,2.52 -1.7,0.73 0.15,0.65 -0.52,1.45 1.25,2.02 0.89,0.01 0.37,1.57 1.71,2.42 -0.68,0.1 -1.55,-0.23 -0.91,0.74 -1.27,0.49 -0.88,0.12 -0.31,0.54 -1.38,-0.14 -1.73,-1.3 -0.2,-1.29 -0.72,-1.41 0.45,-2.38 0.78,-0.98 -0.65,-1.3 -0.96,-0.42 0.37,-1.23 -0.66,-0.64 -1.46,0.12 -1.89,-2.12 0.76,-0.77 -0.06,-1.3 1.73,-0.45 0.69,-0.52 -0.96,-1.04 0.25,-1.03 z" />
    <path
       id="PE"
       data-name="Peru"
       data-id="PE"
       d="m 280.13,513.14 -0.75,1.51 -1.44,0.74 -2.81,-1.68 -0.25,-1.2 -5.55,-2.92 -5.03,-3.17 -2.17,-1.78 -1.16,-2.37 0.46,-0.83 -2.37,-3.75 -2.77,-5.24 -2.64,-5.62 -1.15,-1.29 -0.88,-2.06 -2.18,-1.84 -2,-1.13 0.91,-1.25 -1.36,-2.67 0.87,-1.95 2.24,-1.77 0.33,1.17 -0.8,0.66 0.07,1.02 1.16,-0.22 1.14,0.3 1.17,1.41 1.59,-1.15 0.53,-1.88 1.72,-2.43 3.37,-1.1 3.06,-2.92 0.87,-1.81 -0.39,-2.11 0.75,-0.27 1.86,1.32 0.89,1.32 1.3,0.72 1.65,2.92 2.09,0.35 1.55,-0.74 1.01,0.48 1.68,-0.24 2.15,1.31 -1.81,2.84 0.84,0.06 1.4,1.49 -2.53,-0.13 -0.37,0.42 -2.3,0.53 -3.2,1.91 -0.21,1.3 -0.71,0.98 0.28,1.51 -1.7,0.81 v 1.19 l -0.74,0.51 1.17,2.53 1.56,1.72 -0.59,1.21 1.86,0.16 1.06,1.51 2.47,0.07 2.3,-1.66 -0.19,4.3 1.28,0.33 1.58,-0.49 2.43,4.58 -0.61,0.96 -0.13,2.02 -0.06,2.44 -1.1,1.44 0.51,1.07 -0.65,0.97 1.21,2.44 z" />
    <path
       id="PY"
       data-name="Paraguay"
       data-id="PY"
       d="m 299.49,526.99 1.11,-3.59 0.07,-1.6 1.34,-2.62 4.89,-0.86 2.6,0.05 2.62,1.51 0.04,0.91 0.83,1.66 -0.18,4.06 2.96,0.58 1.14,-0.59 1.89,0.82 0.53,0.9 0.26,2.77 0.33,1.18 1.04,0.13 1.05,-0.49 1.01,0.55 v 1.68 l -0.38,1.82 -0.55,1.78 -0.46,2.75 -2.54,2.4 -2.22,0.5 -3.15,-0.48 -2.82,-0.85 2.76,-4.73 -0.41,-1.37 -2.88,-1.2 -3.43,-2.26 -2.29,-0.46 z" />
    <path
       id="SR"
       data-name="Suriname"
       data-id="SR"
       d="m 315.02,446.72 3.36,0.56 0.3,-0.51 2.27,-0.2 3.01,0.76 -1.46,2.4 0.22,1.91 1.11,1.66 -0.49,1.2 -0.25,1.27 -0.72,1.17 -1.6,-0.59 -1.33,0.29 -1.13,-0.25 -0.28,0.81 0.47,0.55 -0.25,0.57 -1.53,-0.23 -1.71,-2.42 -0.37,-1.57 -0.89,-0.01 -1.25,-2.02 0.52,-1.45 -0.15,-0.65 1.7,-0.73 z" />
    <path
       id="UY"
       data-name="Uruguay"
       data-id="UY"
       d="m 313.68,551.79 1.82,-0.34 2.81,2.5 1.04,-0.09 2.89,2.08 2.2,1.82 1.62,2.25 -1.24,1.57 0.78,1.9 -1.21,2.12 -3.17,1.88 -2.07,-0.68 -1.52,0.37 -2.59,-1.46 -1.9,0.11 -1.71,-1.87 0.22,-2.16 0.61,-0.74 -0.03,-3.3 0.75,-3.37 z" />
    <path
       id="VE"
       data-name="Venezuela"
       data-id="VE"
       d="m 275.25,430.35 -0.08,0.67 -1.65,0.33 0.92,1.29 -0.04,1.49 -1.23,1.64 1.06,2.24 1.21,-0.18 0.63,-2.04 -0.87,-1 -0.14,-2.14 3.49,-1.16 -0.39,-1.34 0.98,-0.9 1.01,2 1.97,0.05 1.82,1.58 0.11,0.94 2.51,0.02 3,-0.29 1.61,1.27 2.14,0.35 1.57,-0.88 0.03,-0.72 3.48,-0.17 3.36,-0.04 -2.38,0.84 0.95,1.34 2.25,0.21 2.12,1.39 0.45,2.26 1.46,-0.07 1.1,0.67 -2.22,1.65 -0.25,1.03 0.96,1.04 -0.69,0.52 -1.73,0.45 0.06,1.3 -0.76,0.77 1.89,2.12 0.38,0.79 -1.03,1.07 -3.14,1.04 -2.01,0.44 -0.81,0.66 -2.23,-0.7 -2.08,-0.36 -0.52,0.26 1.25,0.72 -0.11,1.87 0.39,1.76 2.37,0.24 0.16,0.58 -2.01,0.8 -0.32,1.18 -1.16,0.45 -2.08,0.65 -0.54,0.86 -2.18,0.18 -1.55,-1.48 -0.85,-2.77 -0.75,-0.98 -1.02,-0.61 1.42,-1.39 -0.09,-0.63 -0.8,-0.83 -0.56,-1.85 0.22,-2.01 0.62,-0.94 0.51,-1.5 -0.99,-0.49 -1.6,0.32 -2.02,-0.15 -1.13,0.3 -1.98,-2.41 -1.63,-0.36 -3.6,0.27 -0.67,-0.98 -0.69,-0.23 -0.1,-0.59 0.33,-1.04 -0.22,-1.13 -0.62,-0.62 -0.36,-1.3 -1.44,-0.18 0.77,-1.66 0.35,-2.01 0.81,-1.06 1.09,-0.81 0.71,-1.42 z" />
  </g>
</svg>
