<?xml version="1.0" encoding="UTF-8" standalone="no"?>
<!-- (c) ammap.com | SVG map of Asia - low -->

<svg
   version="1.1"
   viewBox="600 40 402.76999 440.88"
   id="svg32"
   width="402.76999"
   height="440.88"
   sodipodi:docname="asia.svg"
   inkscape:version="1.2.2 (b0a8486541, 2022-12-01)"
   xmlns:inkscape="http://www.inkscape.org/namespaces/inkscape"
   xmlns:sodipodi="http://sodipodi.sourceforge.net/DTD/sodipodi-0.dtd"
   xmlns="http://www.w3.org/2000/svg"
   xmlns:svg="http://www.w3.org/2000/svg">
  <sodipodi:namedview
     id="namedview33"
     pagecolor="#ffffff"
     bordercolor="#000000"
     borderopacity="0.25"
     inkscape:showpageshadow="2"
     inkscape:pageopacity="0.0"
     inkscape:pagecheckerboard="0"
     inkscape:deskcolor="#d1d1d1"
     showgrid="false"
     inkscape:zoom="2.729758"
     inkscape:cx="157.88945"
     inkscape:cy="220.16603"
     inkscape:window-width="1920"
     inkscape:window-height="1022"
     inkscape:window-x="0"
     inkscape:window-y="0"
     inkscape:window-maximized="1"
     inkscape:current-layer="svg32" />
  <defs
     id="defs36" />
  <g
     id="g506">
    <path
       id="BD"
       data-name="Bangladesh"
       data-id="BD"
       d="m 729.55,388.89 -0.05,2.15 -0.98,-0.46 0.18,2.41 -0.8,-1.56 -0.16,-1.52 -0.54,-1.45 -1.17,-1.76 -2.58,-0.12 0.26,1.25 -0.88,1.67 -1.2,-0.61 -0.41,0.55 -0.79,-0.33 -1.08,-0.27 -0.44,-2.48 -0.97,-2.28 0.47,-1.84 -1.72,-0.82 0.62,-1.12 1.75,-1.15 -2.02,-1.63 0.99,-2.11 2.22,1.34 1.34,0.16 0.25,2.15 2.66,0.42 2.61,-0.05 1.61,0.53 -1.29,2.59 -1.26,0.18 -0.86,1.73 1.53,1.58 0.46,-1.94 0.78,-0.01 z" />
    <path
       id="BN"
       data-name="Brunei"
       data-id="BN"
       d="m 789.92,439.25 1.11,-1.05 2.39,-1.53 -0.13,1.38 -0.16,1.78 -1.34,-0.09 -0.59,0.95 z"
       inkscape:label="BN" />
    <path
       id="BT"
       data-name="Bhutan"
       data-id="BT"
       d="m 726.82,371.26 1.14,1 -0.2,1.93 -2.29,0.09 -2.36,-0.21 -1.77,0.49 -2.55,-1.19 -0.05,-0.63 1.85,-2.34 1.51,-0.8 2.01,0.73 1.48,0.08 z" />
    <path
       id="CN"
       data-name="China"
       data-id="CN"
       d="m 780.34,394.75 0.63,1.13 -1.23,1.3 -0.65,1.7 -2.42,1.41 -2.3,-0.91 -0.08,-2.53 1.38,-1.34 3.06,-0.83 z m 63.33,-96.67 -2.43,1.65 h -4.26 l -1.13,-3.95 -3.32,-3.03 -4.88,-1.38 -1.04,-4.28 -0.98,-2.73 -1.05,-1.94 -1.73,-4.61 -2.46,-1.71 -4.2,-1.39 -3.72,0.13 -3.48,0.84 -2.32,2.31 1.54,1.1 0.04,2.52 -1.56,1.45 -2.53,4.73 0.03,1.93 -3.95,2.74 -3.37,-1.63 -1.37,3.25 -1.98,4.23 0.72,1.71 1.59,-0.53 2.77,0.65 2.16,-1.54 2.25,1.33 2.54,2.89 -0.31,1.45 -2.21,-0.46 -4.07,0.54 -1.97,1.16 -2.05,2.66 -4.28,1.55 -2.79,2.1 -2.88,-0.8 -1.58,-0.36 -1.47,2.54 0.9,1.5 0.45,1.28 -1.96,1.3 -2.01,2.05 -3.28,1.34 -4.2,0.14 -4.53,1.31 -3.26,2.01 -1.24,-1.16 h -3.39 l -4.15,-2.29 -2.77,-0.57 -3.73,0.53 -5.79,-0.85 -3.09,0.09 -1.65,-2.27 -1.28,-3.57 -1.73,-0.43 -3.39,-2.45 -3.78,-0.55 -3.33,-0.68 -1.01,-1.73 1.08,-4.73 -1.93,-3.32 -4,-1.57 -2.36,-2.23 -0.74,-2.97 -1.1,0.35 -2.13,2.83 -2.33,0.39 -0.13,4.19 -1.56,1.86 -5.56,-1.35 -2.02,7.26 -1.44,0.89 -5.55,1.58 2.52,6.75 -1.92,1 0.22,2.17 -0.39,0.85 -4.42,2.03 -1,1.48 -3.6,0.44 -1.06,2.35 -2.97,-0.49 -1.94,0.72 -2.68,1.73 0.39,0.85 -0.8,0.83 0.71,3.32 0.92,-0.36 1.7,0.81 -0.1,1.38 0.42,2.01 0.5,1.01 2.07,1.63 0.83,2.66 4.42,1.33 0.14,-0.04 3.88,-1.37 2.88,1.37 -0.91,2.76 -1.6,2.23 -1.24,0.1 h -0.05 l -0.18,1.74 1.12,1.71 -0.09,1.69 -2.01,-0.44 0.79,3.63 2.75,2.07 3.9,2.26 1.16,-0.77 2.25,0.99 2.83,2.09 1.58,0.46 0.94,1.53 2.18,0.63 2.28,1.39 3.17,0.73 3.27,0.31 1.71,-0.66 0.24,2.48 1.85,-2.34 1.51,-0.8 2,0.73 1.48,0.08 1.23,0.85 2.26,-0.39 2.55,-2.36 3.23,-2.03 2.35,0.78 2,-1.35 1.31,1.99 -0.95,1.33 3.02,0.47 1.64,-0.24 0.94,1.86 1.22,0.75 0.08,2.4 -0.11,2.57 -2.66,2.58 -0.34,3.63 2.96,-0.51 0.67,2.8 1.78,0.59 -0.82,2.51 2.08,1.13 1.21,0.55 2.06,-0.87 0.08,1.24 0.25,0.7 1.5,0.08 -0.42,-3.43 1.45,-0.44 1.5,-0.74 2.24,0.02 2.73,-0.35 2.39,-1.62 1.35,1.14 2.56,0.55 -0.44,1.74 1.33,1.22 2.82,0.78 1.33,-0.49 3.76,0.96 -0.66,1.16 0.74,2.16 1.55,-0.17 0.96,-3.15 2.97,-0.46 3.92,-1.5 1.59,-1.5 0.97,0.98 1.71,-1.34 3.16,-0.35 3.9,-2.55 3.86,-2.82 2.6,-3.68 2.27,-4.09 2.05,-3.41 1.57,-0.28 0.71,-2.52 0.43,-2.61 -1.65,-1 -0.67,-1.73 1.76,-0.89 0.05,-2.43 -1.9,-2.53 -1.71,-3.05 -1.1,-3.31 -3.02,-1.86 1.44,-2.39 2.73,-1.73 1.31,-1.87 3.97,-0.97 -0.46,-1.84 -1.81,-0.09 -2.49,-1.37 -3.14,2.51 -2.22,-1.02 -0.09,-1.58 -2.29,-0.58 -1.48,-2.41 1.43,-1.68 2.75,-0.17 1.73,-2.34 3.17,-2.54 2.44,-1.3 1.48,1.93 -2.22,2.45 0.59,1.41 -1.49,1.67 3.02,-0.98 2.06,-1.69 3.92,-1.06 2.28,-2.35 3.09,-1.98 1.93,-2.64 1.33,1.17 2.42,0.14 -0.44,-1.97 4.33,-1.62 1.11,-2.13 1.81,2.24 -0.02,-1.93 1.43,-0.1 0.4,-4.55 -0.74,-3.36 2.41,-1.4 3.4,0.7 1.89,-3.89 0.96,-4.46 1.09,-1.51 1.47,-3.76 z" />
    <path
       id="ID"
       data-name="Indonesia"
       data-id="ID"
       d="m 808.18,480.54 -1.18,0.05 -3.72,-1.98 2.61,-0.56 1.47,0.86 0.98,0.86 z m 10.43,-0.28 -2.4,0.62 -0.34,-0.34 0.25,-0.96 1.21,-1.72 2.77,-1.12 0.28,0.56 0.05,0.86 z m -18.32,-5.77 1.01,0.75 1.73,-0.23 0.7,1.2 -3.24,0.57 -1.94,0.38 -1.51,-0.02 0.96,-1.62 1.54,-0.02 z m 14.03,-0.01 -0.41,1.56 -4.21,0.8 -3.73,-0.35 -0.01,-1.03 2.23,-0.59 1.76,0.84 1.87,-0.21 z m -40.04,-3.69 5.37,0.28 0.62,-1.16 5.2,1.35 1.02,1.82 4.21,0.51 3.44,1.67 -3.2,1.07 -3.08,-1.13 -2.54,0.08 -2.91,-0.21 -2.62,-0.51 -3.25,-1.07 -2.06,-0.28 -1.17,0.35 -5.11,-1.16 -0.49,-1.21 -2.57,-0.21 1.92,-2.68 3.4,0.17 2.26,1.09 1.16,0.21 z m 73.18,-1.58 -1.44,1.91 -0.27,-2.11 0.5,-1.01 0.59,-0.95 0.64,0.82 z m -20.96,-7.71 -1.05,0.93 -1.94,-0.51 -0.55,-1.2 2.84,-0.13 z m 9.04,-1.01 1.02,2.13 -2.37,-1.15 -2.34,-0.23 -1.58,0.18 -1.94,-0.1 0.67,-1.53 3.46,-0.12 z m 10.29,-5.42 0.78,4.51 2.9,1.67 2.34,-2.96 3.22,-1.68 h 2.49 l 2.4,0.97 2.08,1 3.01,0.53 0.05,9.1 0.05,9.16 -2.5,-2.31 -2.85,-0.57 -0.69,0.8 -3.55,0.09 1.19,-2.29 1.77,-0.78 -0.73,-3.05 -1.35,-2.35 -5.44,-2.37 -2.31,-0.23 -4.21,-2.58 -0.83,1.36 -1.08,0.25 -0.64,-1.02 -0.01,-1.21 -2.14,-1.37 3.02,-1 2,0.05 -0.24,-0.74 -4.1,-0.01 -1.11,-1.66 -2.5,-0.51 -1.19,-1.38 3.78,-0.67 1.44,-0.91 4.5,1.14 z m -24.96,-7.16 -2.25,2.76 -2.11,0.54 -2.7,-0.54 -4.67,0.14 -2.45,0.4 -0.4,2.11 2.51,2.48 1.51,-1.26 5.23,-0.95 -0.23,1.28 -1.22,-0.4 -1.22,1.63 -2.47,1.08 2.65,3.57 -0.51,0.96 2.52,3.22 -0.02,1.84 -1.5,0.82 -1.1,-0.98 1.36,-2.29 -2.75,1.08 -0.7,-0.77 0.36,-1.08 -2.02,-1.64 0.21,-2.72 -1.87,0.85 0.24,3.25 0.11,4 -1.78,0.41 -1.2,-0.82 0.8,-2.57 -0.43,-2.69 -1.18,-0.02 -0.87,-1.91 1.16,-1.83 0.4,-2.21 1.41,-4.2 0.59,-1.15 2.38,-2.07 2.19,0.82 3.54,0.39 3.22,-0.12 2.77,-2.02 z m 9.67,0.8 -0.15,2.43 -1.45,-0.27 -0.43,1.69 1.16,1.47 -0.79,0.33 -1.13,-1.76 -0.83,-3.56 0.56,-2.23 0.93,-1.01 0.2,1.52 1.66,0.24 z m -30.32,-1.94 3.14,2.58 -3.32,0.33 -0.94,1.9 0.12,2.52 -2.7,1.91 -0.06,2.77 -1.08,4.27 -0.41,-0.99 -3.19,1.26 -1.11,-1.71 -2,-0.16 -1.4,-0.89 -3.33,1 -1.02,-1.35 -1.84,0.15 -2.31,-0.32 -0.43,-3.74 -1.4,-0.77 -1.35,-2.38 -0.39,-2.44 0.33,-2.58 1.67,-1.85 0.47,1.86 1.92,1.57 1.81,-0.57 1.79,0.2 1.63,-1.41 1.34,-0.24 2.65,0.78 2.29,-0.59 1.44,-3.88 1.08,-0.97 0.97,-3.17 h 3.22 l 2.43,0.47 -1.59,2.52 2.06,2.64 z m -33.81,21.42 -3.1,0.06 -2.36,-2.34 -3.6,-2.28 -1.2,-1.69 -2.12,-2.27 -1.39,-2.09 -2.13,-3.9 -2.46,-2.32 -0.82,-2.39 -1.03,-2.17 -2.53,-1.75 -1.47,-2.39 -2.11,-1.56 -2.92,-3.08 -0.25,-1.42 1.81,0.11 4.34,0.54 2.48,2.73 2.17,1.89 1.55,1.16 2.66,3 2.85,0.04 2.36,1.91 1.62,2.33 2.13,1.27 -1.12,2.27 1.61,0.97 1.01,0.07 0.48,1.94 0.98,1.56 2.06,0.25 1.36,1.76 -0.7,3.47 z" />
    <path
       id="IN"
       data-name="India"
       data-id="IN"
       d="m 742.82,370.91 -0.22,-1.2 -3.02,-0.47 0.95,-1.34 -1.32,-1.98 -2,1.34 -2.35,-0.78 -3.23,2.03 -2.55,2.35 -2.26,0.4 1.14,1 -0.2,1.93 -2.29,0.09 -2.36,-0.21 -1.77,0.49 -2.55,-1.19 -0.05,-0.63 -0.24,-2.48 -1.71,0.67 -0.22,1.35 0.37,1.99 -0.32,1.24 -2.33,0.05 -3.38,-0.73 -2.16,-0.29 -1.62,-1.59 -3.84,-0.41 -3.66,-1.77 -2.64,-1.55 -2.72,-1.2 1.09,-2.99 1.78,-1.46 -3.9,-2.27 -2.75,-2.06 -0.79,-3.63 2.01,0.44 0.09,-1.69 -1.11,-1.71 0.18,-1.74 h 0.05 l 1.24,-0.1 1.6,-2.23 0.91,-2.76 -2.88,-1.37 -3.88,1.37 -0.14,0.04 0.19,0.06 -4.61,-1.39 -0.83,-2.66 -2.07,-1.63 -1.64,0.39 -1.42,0.65 -1.28,0.16 -0.12,0.11 -3.08,2.34 0.36,1.15 0.96,-0.01 3.04,2.61 -1.87,1.68 0.58,4.8 2.38,0.99 0.09,-0.03 0.01,0.04 2.27,1.63 -2.39,1.91 0.04,2.33 -2.72,3.24 -1.76,3.26 -2.93,3.32 -3.26,-0.24 -3.09,3.3 1.84,1.4 0.32,2.39 1.57,1.56 0.56,2.64 -6.17,-0.01 -1.87,2.04 3.29,2.58 0.83,1.18 -1.35,1.09 3.66,3.63 1.98,0.36 4.08,-1.79 0.54,2.8 -0.01,3.58 0.84,3.77 1.16,5.64 2.55,3.97 0.49,1.8 0.69,3.58 1.49,2.74 0.98,1.34 1.08,2.86 1.3,3.96 2.65,2.63 1.13,-0.81 0.94,-1.92 2.56,-0.8 -0.85,-0.93 1.27,-2.15 1.45,-0.14 0.02,-4.83 1.18,-2.71 -0.15,-2.37 -0.58,-3.75 0.84,-2.2 1.31,-0.16 2.53,-1.03 1.4,-0.72 v -1.34 l 2.79,-1.91 2.11,-1.85 3.14,-3.46 4.03,-2 1.5,-1.76 -0.16,-2.25 3.46,-0.62 1.9,0.04 0.41,-1.1 -0.44,-2.48 -0.97,-2.28 0.47,-1.84 -1.72,-0.82 0.62,-1.12 1.75,-1.15 -2.02,-1.63 0.99,-2.11 2.22,1.34 1.34,0.16 0.25,2.15 2.66,0.42 2.61,-0.05 1.61,0.53 -1.29,2.59 -1.26,0.18 -0.86,1.73 1.53,1.58 0.46,-1.94 0.78,-0.01 1.47,4.8 1.39,-0.72 -0.3,-1.28 0.63,-1.03 0.11,-3.15 2.19,0.7 1.25,-2.52 0.15,-1.5 1.54,-2.6 -0.08,-1.78 3.63,-2.16 2,0.57 -0.23,-1.93 z" />
    <path
       id="JP"
       data-name="Japan"
       data-id="JP"
       d="m 847.22,350.49 0.36,1.15 -1.58,2.03 -1.15,-1.07 -1.44,0.78 -0.74,1.95 -1.83,-0.95 0.02,-1.58 1.55,-2 1.59,0.39 1.15,-1.42 z m 17.77,-10.28 -1.06,2.78 0.49,1.73 -1.46,2.42 -3.58,1.6 -4.93,0.21 -4,3.84 -1.88,-1.29 -0.11,-2.52 -4.88,0.75 -3.32,1.59 -3.28,0.06 2.84,2.46 -1.87,5.61 -1.81,1.37 -1.36,-1.27 0.69,-2.96 -1.77,-0.96 -1.14,-2.28 2.65,-1.03 1.47,-2.11 2.82,-1.75 2.06,-2.33 5.58,-1.02 3,0.7 2.93,-6.17 1.87,1.67 4.11,-3.51 1.59,-1.38 1.76,-4.38 -0.48,-4.1 1.18,-2.33 2.98,-0.68 1.53,5.11 -0.08,2.94 -2.59,3.6 z m 8.23,-25.93 1.97,0.83 1.98,-1.65 0.62,4.35 -4.16,1.05 -2.46,3.76 -4.41,-2.58 -1.53,4.12 -3.12,0.06 -0.39,-3.74 1.39,-2.94 3,-0.21 0.82,-5.38 0.83,-3.09 3.29,4.12 z" />
    <path
       id="KG"
       data-name="Kyrgyzstan"
       data-id="KG"
       d="m 668.68,321.59 0.63,-1.66 1.84,-0.54 4.62,1.31 0.43,-2.24 1.59,-0.8 4,1.61 1.02,-0.42 4.65,0.1 4.16,0.4 1.4,1.37 1.73,0.55 -0.39,0.86 -4.42,2.03 -1,1.48 -3.6,0.44 -1.06,2.35 -2.97,-0.49 -1.93,0.72 -2.68,1.72 0.39,0.85 -0.8,0.83 -5.3,0.55 -3.47,-1.17 -3.04,0.28 0.27,-2.1 3.05,0.61 1.03,-1.13 2.13,0.36 3.59,-2.64 -3.32,-1.96 -2,0.93 -2.07,-1.4 2.35,-2.43 z" />
    <path
       id="KH"
       data-name="Cambodia"
       data-id="KH"
       d="m 759.9,422.08 -1.14,-1.48 -1.41,-2.94 -0.67,-3.45 1.8,-2.38 3.62,-0.55 2.63,0.41 2.31,1.13 1.27,-1.99 2.49,1.06 0.65,1.92 -0.35,3.42 -4.71,2.19 1.23,1.73 -2.94,0.2 -2.43,1.14 z" />
    <path
       id="KP"
       data-name="North Korea"
       data-id="KP"
       d="m 836.01,321.1 0.39,0.67 -1.06,-0.23 -1.22,1.27 -0.84,1.28 0.11,2.67 -1.45,0.81 -0.5,0.65 -1.06,1.08 -1.87,0.6 -1.21,0.98 -0.09,1.57 -0.33,0.4 1.12,0.58 1.59,1.58 -0.41,0.86 -1.19,0.23 -1.98,0.17 -1.09,1.6 -1.26,-0.12 -0.17,0.32 -1.36,-0.67 -0.34,0.66 -0.82,0.29 -0.1,-0.66 -0.73,-0.32 -0.75,-0.57 0.77,-1.57 0.66,-0.42 -0.25,-0.65 0.71,-1.94 -0.19,-0.59 -1.63,-0.4 -1.32,-0.97 2.28,-2.35 3.09,-1.98 1.93,-2.65 1.33,1.17 2.42,0.14 -0.44,-1.97 4.33,-1.63 1.12,-2.13 z" />
    <path
       id="KR"
       data-name="South Korea"
       data-id="KR"
       d="m 829.59,335.01 2.42,4.18 0.69,2.27 0.02,3.98 -1.05,1.88 -2.54,0.66 -2.24,1.41 -2.53,0.29 -0.31,-1.85 0.52,-2.57 -1.24,-3.6 2.08,-0.59 -1.92,-3 0.17,-0.32 1.26,0.12 1.09,-1.6 1.98,-0.17 1.19,-0.23 z" />
    <path
       id="KZ"
       data-name="Kazakhstan"
       data-id="KZ"
       d="m 668.68,321.59 -1.61,0.7 -3.69,2.61 -1.23,2.65 -1.05,0.02 -0.76,-1.75 -3.57,-0.12 -0.57,-3.06 -1.37,-0.03 0.21,-3.8 -3.35,-2.8 -4.81,0.3 -3.29,0.56 -2.68,-3.5 -2.29,-1.48 -4.35,-2.84 -0.52,-0.35 -7.22,2.35 0.11,14.13 -1.44,0.18 -1.96,-2.93 -1.9,-1.06 -3.18,0.79 -1.24,1.25 -0.16,-0.92 0.69,-1.57 -0.53,-1.32 -3.25,-1.3 -1.27,-3.47 -1.54,-0.98 -0.1,-1.28 2.73,0.37 0.11,-2.88 2.38,-0.64 2.45,0.59 0.51,-3.91 -0.5,-2.51 -2.81,0.2 -2.38,-1 -3.25,1.79 -2.61,0.86 -1.43,-0.66 0.29,-2.1 -1.79,-2.76 -2.08,0.11 -2.38,-2.83 1.62,-3.22 -0.82,-0.87 2.23,-4.77 2.89,2.53 0.35,-3.19 5.78,-4.85 4.38,-0.12 6.19,3.1 3.31,1.79 2.98,-1.87 4.44,-0.08 3.59,2.29 0.82,-1.31 3.93,0.19 0.71,-2.11 -4.55,-3.09 2.69,-2.23 -0.52,-1.25 2.69,-1.21 -2.02,-3.2 1.28,-1.62 10.49,-1.66 1.37,-1.19 7.02,-1.79 2.52,-2.04 5.04,1.06 0.88,5.01 2.93,-1.16 3.6,1.63 -0.23,2.58 2.69,-0.27 7.02,-4.49 -1.02,1.5 3.58,3.66 6.26,11.58 1.5,-2.33 3.86,2.56 4.03,-1.14 1.54,0.8 1.35,2.55 1.96,0.84 1.2,1.85 3.61,-0.58 1.49,2.63 -2.14,2.83 -2.33,0.4 -0.13,4.18 -1.56,1.86 -5.56,-1.35 -2.02,7.26 -1.44,0.89 -5.55,1.58 2.52,6.75 -1.92,1 0.22,2.16 -1.73,-0.55 -1.4,-1.37 -4.16,-0.4 -4.65,-0.1 -1.02,0.42 -4,-1.61 -1.59,0.8 -0.43,2.24 -4.62,-1.31 -1.84,0.54 z" />
    <path
       id="LA"
       data-name="Laos"
       data-id="LA"
       d="m 764.73,411.69 0.91,-1.3 0.13,-2.44 -2.27,-2.53 -0.18,-2.87 -2.13,-2.38 -2.12,-0.2 -0.56,1.02 -1.65,0.08 -0.84,-0.51 -2.95,1.74 -0.07,-2.62 0.69,-3.11 -1.89,-0.13 -0.16,-1.78 -1.22,-0.92 0.6,-1.1 2.39,-1.94 0.25,0.7 1.49,0.08 -0.42,-3.43 1.45,-0.44 1.64,2.37 1.26,2.72 3.45,0.03 1.09,2.59 -1.79,0.77 -0.81,1.07 3.36,1.76 2.33,3.46 1.77,2.57 2.12,2.02 0.71,2.04 -0.51,2.88 -2.49,-1.06 -1.27,1.99 z" />
    <path
       id="LK"
       data-name="Sri Lanka"
       data-id="LK"
       d="m 699.03,430.85 -0.42,2.92 -1.17,0.8 -2.44,0.64 -1.34,-2.23 -0.49,-4.03 1.27,-4.58 1.93,1.57 1.31,1.98 z" />
    <path
       id="MM"
       data-name="Myanmar"
       data-id="MM"
       d="m 748.82,394.43 -1.64,1.28 -1.98,0.14 -1.28,3.19 -1.18,0.53 1.36,2.57 1.78,2.13 1.14,1.92 -1.02,2.52 -0.97,0.53 0.67,1.45 1.87,2.28 0.32,1.6 -0.05,1.33 1.1,2.6 -1.54,2.65 -1.36,2.91 -0.27,-2.1 0.86,-2.18 -0.94,-1.68 0.23,-3.11 -1.14,-1.48 -0.91,-3.44 -0.51,-3.66 -1.21,-2.4 -1.85,1.46 -3.19,2.06 -1.57,-0.26 -1.74,-0.67 0.97,-3.61 -0.58,-2.74 -2.2,-3.39 0.34,-1.07 -1.64,-0.38 -1.99,-2.42 -0.18,-2.41 0.98,0.46 0.05,-2.15 1.39,-0.72 -0.3,-1.28 0.63,-1.03 0.11,-3.15 2.19,0.7 1.25,-2.52 0.15,-1.5 1.54,-2.6 -0.08,-1.78 3.63,-2.16 2,0.57 -0.23,-1.93 0.99,-0.58 -0.22,-1.2 1.64,-0.24 0.94,1.86 1.22,0.75 0.09,2.4 -0.12,2.57 -2.65,2.58 -0.34,3.63 2.96,-0.5 0.67,2.8 1.78,0.59 -0.82,2.5 2.08,1.13 1.22,0.55 2.05,-0.87 0.09,1.24 -2.39,1.94 -0.6,1.1 z" />
    <path
       id="MN"
       data-name="Mongolia"
       data-id="MN"
       d="m 715.75,293.36 2.96,-0.74 5.35,-3.74 4.27,-2.07 2.43,1.35 2.93,0.06 1.87,2.05 2.8,0.15 4.06,1.09 2.72,-3.03 -1.14,-2.6 2.91,-4.66 3.14,1.87 2.54,0.53 3.3,1.15 0.53,3.32 3.99,1.84 2.65,-0.81 3.54,-0.57 2.81,0.58 2.75,2.09 1.7,2.2 2.6,-0.04 3.53,0.69 2.58,-1.06 3.69,-0.71 4.11,-3.06 1.68,0.47 1.47,1.46 3.34,-0.36 -1.36,3.25 -1.98,4.22 0.72,1.71 1.59,-0.53 2.76,0.65 2.16,-1.54 2.25,1.33 2.54,2.89 -0.31,1.45 -2.21,-0.46 -4.07,0.54 -1.98,1.16 -2.05,2.66 -4.28,1.55 -2.79,2.1 -2.88,-0.8 -1.58,-0.36 -1.47,2.54 0.89,1.5 0.46,1.28 -1.97,1.3 -2.01,2.05 -3.27,1.33 -4.21,0.15 -4.53,1.31 -3.26,2.01 -1.24,-1.16 h -3.39 l -4.15,-2.29 -2.77,-0.57 -3.73,0.53 -5.79,-0.85 -3.09,0.09 -1.64,-2.27 -1.28,-3.57 -1.73,-0.43 -3.39,-2.45 -3.78,-0.55 -3.33,-0.68 -1.01,-1.73 1.08,-4.73 -1.93,-3.31 -4,-1.57 -2.36,-2.23 z" />
    <path
       id="MY"
       data-name="Malaysia"
       data-id="MY"
       d="m 753.11,434.55 0.22,1.44 1.85,-0.33 0.92,-1.15 0.64,0.26 1.66,1.69 1.18,1.87 0.16,1.88 -0.3,1.27 0.27,0.96 0.21,1.65 0.99,0.77 1.1,2.46 -0.05,0.94 -1.99,0.19 -2.65,-2.06 -3.32,-2.21 -0.33,-1.42 -1.62,-1.87 -0.39,-2.31 -1.01,-1.52 0.31,-2.04 -0.62,-1.19 0.49,-0.5 z m 49.19,4.83 -2.06,0.95 -2.43,-0.47 h -3.22 l -0.97,3.17 -1.08,0.97 -1.44,3.88 -2.29,0.59 -2.65,-0.78 -1.34,0.24 -1.63,1.41 -1.79,-0.2 -1.81,0.57 -1.92,-1.57 -0.47,-1.86 2.05,0.96 2.17,-0.52 0.56,-2.36 1.2,-0.53 3.36,-0.6 2.01,-2.21 1.38,-1.77 1.28,1.45 0.59,-0.95 1.34,0.09 0.16,-1.78 0.13,-1.38 2.16,-1.95 1.41,-2.19 1.13,-0.01 1.44,1.42 0.13,1.22 1.85,0.78 2.34,0.84 -0.2,1.1 -1.88,0.14 z" />
    <path
       id="NP"
       data-name="Nepal"
       data-id="NP"
       d="m 716.79,370.93 -0.22,1.35 0.37,1.99 -0.32,1.24 -2.33,0.05 -3.38,-0.73 -2.16,-0.29 -1.62,-1.59 -3.84,-0.41 -3.66,-1.77 -2.64,-1.55 -2.72,-1.2 1.09,-2.99 1.78,-1.46 1.16,-0.78 2.25,1 2.83,2.09 1.57,0.46 0.94,1.53 2.18,0.63 2.28,1.39 3.17,0.73 z" />
    <path
       id="PH"
       data-name="Philippines"
       data-id="PH"
       d="m 824.05,428.34 0.29,1.87 0.17,1.58 -0.96,2.57 -1.02,-2.86 -1.31,1.42 0.9,2.06 -0.8,1.31 -3.3,-1.63 -0.79,-2.03 0.86,-1.33 -1.78,-1.33 -0.88,1.17 -1.32,-0.11 -2.08,1.57 -0.46,-0.82 1.1,-2.37 1.77,-0.79 1.53,-1.06 0.99,1.27 2.13,-0.77 0.46,-1.26 1.98,-0.08 -0.17,-2.18 2.27,1.34 0.24,1.42 z m -6.71,-5.26 -1.01,0.93 -0.88,1.79 -0.88,0.84 -1.73,-1.95 0.58,-0.76 0.7,-0.79 0.31,-1.76 1.55,-0.17 -0.45,1.91 2.08,-2.74 z m -15.36,2.72 -3.73,2.67 1.38,-1.97 2.03,-1.74 1.68,-1.96 1.47,-2.82 0.5,2.31 -1.85,1.56 z m 9.48,-7.3 1.68,0.88 h 1.78 l -0.05,1.19 -1.3,1.2 -1.78,0.85 -0.1,-1.32 0.2,-1.45 z m 10.14,-0.77 0.79,3.18 -2.16,-0.75 0.06,0.95 0.69,1.75 -1.33,0.63 -0.12,-1.99 -0.84,-0.15 -0.44,-1.72 1.65,0.23 -0.04,-1.08 -1.71,-2.18 2.69,0.06 z m -11.14,-2.59 -0.74,2.47 -1.2,-1.42 -1.43,-2.18 2.4,0.1 z m -0.58,-15.74 1.73,0.84 0.86,-0.76 0.25,0.75 -0.46,1.22 0.96,2.09 -0.74,2.42 -1.65,0.96 -0.44,2.33 0.63,2.29 1.49,0.32 1.24,-0.34 3.5,1.59 -0.27,1.56 0.92,0.69 -0.29,1.32 -2.18,-1.4 -1.04,-1.5 -0.72,1.05 -1.79,-1.72 -2.55,0.42 -1.4,-0.63 0.14,-1.19 0.88,-0.73 -0.84,-0.67 -0.36,1.04 -1.38,-1.65 -0.42,-1.26 -0.1,-2.77 1.13,0.96 0.29,-4.55 0.91,-2.66 z" />
    <path
       id="PK"
       data-name="Pakistan"
       data-id="PK"
       d="m 675.98,354.12 -0.58,-4.8 1.87,-1.68 -3.04,-2.61 -0.96,0.01 -0.36,-1.15 3.08,-2.34 0.12,-0.11 -1.94,0.24 -3.01,0.73 -1.64,1.51 0.66,1.46 0.33,1.7 -1.4,1.43 0.12,1.3 -0.77,1.22 -2.67,-0.11 1.1,2.22 -1.78,0.85 -1.19,2 0.15,1.98 -1.1,0.92 -1.03,-0.3 -2.15,0.43 -0.3,0.91 h -2.09 l -1.56,1.84 -0.1,2.75 -3.65,1.33 -1.95,-0.28 -0.57,0.7 -1.67,-0.4 -2.81,0.48 -4.69,-1.64 1.38,1.68 1.13,1.93 2.68,1.4 0.08,2.77 1.34,0.51 0.23,1.44 -4.04,1.61 -1.06,3.6 3.95,-0.44 4.56,-0.05 5.16,-0.58 2.17,2.34 0.84,2.2 2.05,0.77 1.87,-2.04 6.17,0.01 -0.56,-2.64 -1.57,-1.56 -0.32,-2.39 -1.84,-1.4 3.09,-3.3 3.26,0.24 2.93,-3.32 1.76,-3.26 2.72,-3.24 -0.04,-2.33 2.39,-1.91 -2.27,-1.63 -0.01,-0.04 -0.09,0.03 z" />
    <path
       id="RU"
       data-name="Russia"
       data-id="RU"
       d="m 868.03,139.11 3.98,3.81 0.34,2.57 -4.25,0.07 -5.75,-1.08 -0.49,-0.52 2.66,-3.92 z m -103.7,-52.29 0.83,-5.72 -7.11,-8.34 -2.11,-0.98 -2.3,1.7 -5.12,18.6 z m 124.77,43.69 3.24,-4.25 -7.04,-2.88 -5.23,-1.68 -0.67,3.59 5.21,4.27 z m 85.31,36.62 3.66,-0.52 2.89,-2.06 0.24,-1.19 -4.06,-2.51 -2.38,-0.02 -0.36,0.37 -3.57,3.64 0.5,2.73 z m -110.44,-38.31 10.33,0.3 2.21,-8.14 -10.13,-6.07 -7.4,-0.51 -3.7,2.18 -1.51,7.75 5.55,7.01 z m -132.62,-58.27 4.65,5.73 7.81,4.2 6.12,-1.8 0.69,-13.62 -6.46,-16.04 -5.45,-9.02 -6.07,4.11 -7.28,11.83 3.83,3.27 z m 265.89,127.12 -7.61,-1.07 0.65,5.15 -1.89,-1.74 0.24,-4.44 -7.35,-7.34 -6.87,-5.86 -3.92,-3.44 -8.06,-3.84 -5.83,0.49 -8.95,-2.29 -1.25,3.62 2.27,5.07 -3.47,2.48 -4.88,-6.99 -5.31,0.89 -5.29,-1.57 -4.97,0.21 -3.75,1.64 -3.45,-2.29 0.34,-6.02 -2.33,-3.5 -5.58,-1.41 -11.32,1.62 -7.34,-6.65 -2.39,-5.35 -25.32,-6.06 -3.7,4.07 2.02,8.4 -4.59,-1.24 -2.07,2.47 -5.43,-2.72 -4.78,2.38 -4.5,-4 -2.71,9.18 -4.41,-3.49 -3.52,-6.98 1.66,-3.84 -1.29,-6.04 -4.53,-5.14 -4.48,0.05 -5.95,-1.74 -0.16,7.47 -11.72,-1.43 -0.68,-4.58 -9,-1.65 -4.48,1.57 -1.23,2.56 -1.43,-6.39 -2.52,1.91 -4.15,-2.55 -3.48,-1.43 2.11,-3.08 7.37,-5.92 3.1,-3.24 0.7,-5.85 -2.25,-4.35 -6.32,-5.84 -8.2,-0.16 -2.56,2.94 -0.76,-6.03 -6.35,-1.92 3.82,-3.13 -4.81,-4.21 -6.62,5.31 -2.68,5.33 -0.77,5.24 -5.15,-0.2 -6.29,6.24 -2.29,-2.61 -7.36,1.08 -0.94,3.15 -7.4,1.51 -5.45,5.51 -3.22,0.3 -3.25,7.02 2.28,5.38 -6.08,1.32 -6.74,-0.44 -4.88,2.02 0.28,10.28 2.49,7.62 -5.18,-5.18 -5.82,0.49 -4.69,3.58 1.28,6.37 -3,-1.59 1.11,-8.67 -1.47,-5.19 -1.4,0.22 0.65,6.62 -5.02,6.04 3.64,7.03 -2.24,8.28 0.67,4.42 3.07,0.64 -1.31,5.08 1.63,4.26 -2.43,3.49 -0.74,3.55 -3.08,1.82 -1.12,2.51 -3.21,-1.02 5.49,-10.2 1.2,-5.01 -3.09,-4.73 0.64,-11.07 -0.9,-5.94 -1.74,-2.78 2.66,-7.28 -0.58,-5.18 -7.42,-2.51 -2.08,1.88 -1.84,8.42 -5.17,7.99 0.08,2.74 1.5,6.49 -0.92,3.83 3.38,0.78 0.08,1.68 2.85,4.11 -1.88,3.97 -1.6,-1.39 0.92,7.34 -2.03,4.04 -3.76,3.86 -3.93,3.13 -4.82,5.44 -5.23,4.07 -1.89,19.97 -1.34,8.84 -1.77,5 -1.78,3.54 -2.17,2.73 -0.56,2.42 2.11,1.76 0.31,2.15 -1.66,2.67 -2.57,0.64 -3.08,0.37 1.3,2.44 1.2,1.83 1.81,2.32 1.9,-1.5 1.84,-1.12 1.89,1.07 0.71,1.75 -1.33,1.39 -1.13,2.2 0.09,2.65 1.88,0.67 0.8,1.88 0.3,0.11 2.33,-1.92 -0.53,-1.25 2.69,-1.2 -2.02,-3.21 1.29,-1.62 10.49,-1.66 1.37,-1.19 7.02,-1.79 2.52,-2.03 5.04,1.06 0.88,5.01 2.93,-1.17 3.6,1.63 -0.23,2.58 2.69,-0.27 7.03,-4.49 -1.03,1.5 3.58,3.66 6.27,11.58 1.49,-2.33 3.86,2.57 4.03,-1.14 1.55,0.8 1.35,2.55 1.96,0.85 1.19,1.84 3.61,-0.58 1.49,2.63 1.1,-0.35 2.96,-0.74 5.35,-3.74 4.26,-2.07 2.44,1.35 2.92,0.06 1.87,2.04 2.8,0.16 4.05,1.09 2.73,-3.03 -1.14,-2.6 2.9,-4.66 3.14,1.87 2.54,0.53 3.3,1.15 0.53,3.32 3.98,1.84 2.65,-0.81 3.55,-0.57 2.81,0.58 2.75,2.09 1.7,2.2 2.6,-0.04 3.53,0.7 2.58,-1.06 3.69,-0.71 4.11,-3.06 1.68,0.47 1.47,1.46 3.35,-0.36 3.37,1.63 3.95,-2.74 -0.03,-1.93 2.53,-4.72 1.56,-1.45 -0.04,-2.52 -1.54,-1.1 2.32,-2.31 3.48,-0.84 3.72,-0.13 4.2,1.39 2.46,1.71 1.73,4.61 1.05,1.94 0.98,2.73 1.04,4.28 4.88,1.38 3.32,3.03 1.13,3.95 h 4.26 l 2.43,-1.65 4.63,-1.24 -1.47,3.76 -1.09,1.51 -0.96,4.46 -1.89,3.89 -3.4,-0.7 -2.41,1.4 0.74,3.36 -0.4,4.55 -1.43,0.1 0.02,1.93 0.39,0.66 0.44,-1.26 3.76,-2.79 1.76,1.86 1.77,-0.05 3.74,-2.25 1.81,-2.28 3.78,-4.53 3.81,-4.66 0.94,-2.82 4.23,-6.01 1.26,-6.85 0.24,-5.27 2.19,-4.51 -0.09,-3.92 -4.05,-5.19 -3.08,-0.31 -1.79,2.38 -2.72,-1.05 -1.38,-3 -4.42,-0.61 10.75,-11.78 9.08,-10.33 9.22,-1.62 8.57,0.94 3.47,-2.7 4.36,0.84 -0.2,3.95 4.33,-0.56 6.26,-1.42 -2.32,-3.38 7.02,-9.56 7.24,-2 2.3,7.14 7.11,-6.36 1.68,-4.92 3.41,-0.51 -2.25,8.37 -5.04,4.57 -4.83,5.73 -5.01,6.78 -4.36,1.18 -0.15,2.44 -2.37,3.07 -1.35,6.95 1.56,10.65 1.2,6.69 1.04,3.08 4.04,-4.18 0.84,-4.66 4.18,-1.14 0.97,-5.4 4.9,-2.47 -1.17,-2.1 1.2,-4.15 2.6,-0.19 0.38,-7.46 -3.19,-1.17 -0.1,-2.14 3.36,-5.22 0.9,-3.63 3.75,0.76 2.7,-2.39 1.28,2.08 7.31,-4.42 4.01,3.9 1.03,-2.55 4.07,-3.5 4.29,-4.1 2.49,-0.69 7.84,-4.51 5.23,1.32 0.72,-1.6 -0.33,-2.53 -1.29,-1.67 -1.67,-5.2 -2.53,-3.44 3.63,0.48 3.6,-2.89 0.02,-0.04 1.59,-2.83 -1.26,-3.19 3.36,-1.64 -0.61,2.55 1.52,2.37 3.19,-0.87 2.85,1.1 0.63,2.89 3.73,1.92 2.14,2.26 2.63,0.19 1.12,-1.35 0.07,-6.46 4.6,-0.7 2.78,-2.97 z m -121.94,97.06 -2.82,-7.68 -1.16,-4.51 0.07,-4.5 -0.97,-4.5 -0.73,-3.15 -1.25,0.67 1.11,2.21 -2.59,2.17 -0.25,6.3 1.64,4.41 -0.12,5.85 -0.65,3.24 0.32,4.54 -0.31,4.01 0.52,3.4 1.84,-3.13 2.13,2.44 0.08,-2.84 -2.73,-4.23 1.72,-6.11 z" />
    <path
       id="TH"
       data-name="Thailand"
       data-id="TH"
       d="m 757.35,417.66 -2.52,-1.31 -2.4,0.06 0.41,-2.25 -2.47,0.02 -0.22,3.14 -1.51,4.15 -0.91,2.5 0.19,2.05 1.82,0.09 1.14,2.57 0.51,2.43 1.56,1.61 1.7,0.33 1.45,1.45 -0.91,1.15 -1.86,0.34 -0.22,-1.44 -2.28,-1.23 -0.49,0.5 -1.11,-1.07 -0.48,-1.39 -1.49,-1.59 -1.36,-1.33 -0.46,1.65 -0.53,-1.56 0.31,-1.76 0.82,-2.71 1.36,-2.91 1.54,-2.65 -1.1,-2.6 0.05,-1.33 -0.32,-1.6 -1.87,-2.28 -0.67,-1.45 0.97,-0.53 1.02,-2.52 -1.14,-1.92 -1.78,-2.13 -1.36,-2.57 1.18,-0.53 1.28,-3.19 1.98,-0.14 1.64,-1.28 1.6,-0.69 1.22,0.92 0.16,1.78 1.89,0.13 -0.69,3.11 0.07,2.62 2.95,-1.74 0.84,0.51 1.65,-0.08 0.56,-1.02 2.12,0.2 2.13,2.38 0.18,2.87 2.27,2.53 -0.13,2.44 -0.91,1.3 -2.63,-0.41 -3.62,0.55 -1.8,2.38 z" />
    <path
       id="TJ"
       data-name="Tajikistan"
       data-id="TJ"
       d="m 668.83,329.1 -1.03,1.13 -3.05,-0.61 -0.27,2.1 3.04,-0.28 3.47,1.17 5.3,-0.55 0.71,3.33 0.92,-0.36 1.7,0.81 -0.09,1.38 0.42,2.01 h -2.9 l -1.93,-0.26 -1.74,1.57 -1.25,0.34 -0.98,0.74 -1.11,-1.15 0.27,-2.95 -0.85,-0.17 0.3,-1.09 -1.51,-0.8 -1.21,1.23 -0.3,1.43 -0.43,0.52 -1.68,-0.07 -0.9,1.6 -0.95,-0.67 -2.03,1.12 -0.85,-0.42 1.57,-3.57 -0.6,-2.66 -2.06,-0.86 0.73,-1.59 2.34,0.17 1.33,-2.01 0.89,-2.35 3.75,-0.86 -0.58,1.71 0.4,1.02 z" />
    <path
       id="TL"
       data-name="Timor-Leste"
       data-id="TL"
       d="m 820.11,476.73 0.33,-0.66 2.41,-0.63 1.96,-0.1 0.87,-0.35 1.06,0.35 -1.03,0.76 -2.92,1.23 -2.35,0.82 -0.05,-0.86 z" />
    <path
       id="TM"
       data-name="Turkmenistan"
       data-id="TM"
       d="m 641.34,345.38 -0.25,-2.91 -2.09,-0.12 -3.2,-3.09 -2.24,-0.39 -3.1,-1.79 -2,-0.33 -1.23,0.66 -1.87,-0.1 -1.99,2.02 -2.47,0.68 -0.52,-2.49 0.41,-3.73 -2.19,-1.22 0.72,-2.48 -1.86,-0.22 0.62,-3.09 2.64,0.91 2.47,-1.19 -2.05,-2.23 -0.8,-2.14 -2.26,0.96 -0.28,2.73 -0.88,-2.41 1.24,-1.25 3.18,-0.79 1.9,1.06 1.96,2.93 1.44,-0.18 3.16,-0.05 -0.46,-1.88 2.4,-1.3 2.36,-2.2 3.78,2 0.3,2.99 1.07,0.77 3.03,-0.17 0.94,0.67 1.38,3.79 3.21,2.51 1.83,1.69 2.93,1.75 3.73,1.52 -0.08,2.16 -0.84,-0.11 -1.33,-0.94 -0.44,1.25 -2.36,0.68 -0.56,2.79 -1.58,1.05 -2.21,0.52 -0.59,1.55 -2.11,0.46 z" />
    <path
       id="TW"
       data-name="Taiwan"
       data-id="TW"
       d="m 811.16,381.75 -1.69,4.87 -1.2,2.48 -1.48,-2.55 -0.32,-2.25 1.65,-3 2.25,-2.32 1.28,0.91 z" />
    <path
       id="UZ"
       data-name="Uzbekistan"
       data-id="UZ"
       d="m 656.22,339.43 0.08,-2.16 -3.73,-1.52 -2.93,-1.75 -1.83,-1.69 -3.21,-2.51 -1.38,-3.79 -0.94,-0.67 -3.03,0.17 -1.07,-0.77 -0.3,-2.99 -3.78,-2 -2.36,2.2 -2.4,1.3 0.46,1.88 -3.16,0.05 -0.11,-14.13 7.22,-2.35 0.52,0.35 4.35,2.84 2.29,1.48 2.68,3.5 3.29,-0.56 4.81,-0.3 3.35,2.8 -0.21,3.8 1.37,0.03 0.57,3.06 3.57,0.12 0.76,1.75 1.05,-0.02 1.23,-2.65 3.69,-2.61 1.61,-0.7 0.83,0.37 -2.35,2.43 2.07,1.4 2,-0.93 3.32,1.96 -3.59,2.64 -2.13,-0.36 -1.16,0.1 -0.4,-1.02 0.58,-1.71 -3.75,0.86 -0.89,2.35 -1.33,2.01 -2.34,-0.17 -0.73,1.59 2.06,0.86 0.6,2.66 -1.57,3.57 -2.12,-0.74 z" />
    <path
       id="VN"
       data-name="Vietnam"
       data-id="VN"
       d="m 772.67,390.35 -3.74,2.56 -2.34,2.81 -0.62,2.05 2.15,3.09 2.62,3.82 2.54,1.79 1.71,2.33 1.28,5.32 -0.38,5.02 -2.33,1.87 -3.22,1.83 -2.28,2.36 -3.5,2.62 -1.02,-1.81 0.79,-1.91 -2.08,-1.61 2.43,-1.14 2.94,-0.2 -1.23,-1.73 4.71,-2.19 0.35,-3.42 -0.65,-1.92 0.51,-2.88 -0.71,-2.04 -2.12,-2.02 -1.77,-2.57 -2.33,-3.46 -3.36,-1.76 0.81,-1.07 1.79,-0.77 -1.09,-2.59 -3.45,-0.03 -1.26,-2.72 -1.64,-2.37 1.51,-0.74 2.23,0.02 2.73,-0.35 2.39,-1.62 1.35,1.14 2.57,0.55 -0.45,1.74 1.34,1.22 z" />
    <ellipse
       style="fill:#000000;fill-opacity:0;stroke:#808080;stroke-width:0.8;stroke-linecap:round;stroke-linejoin:round"
       id="path475"
       cx="720.33813"
       cy="380.51199"
       rx="3.6481223"
       ry="5.1020031" />
  </g>
</svg>
